<svg width="26" height="26" viewBox="0 0 26 26" fill="none" xmlns="http://www.w3.org/2000/svg">
<path d="M16.8999 14.3004C16.5551 14.3004 16.2245 14.1634 15.9807 13.9196C15.7369 13.6758 15.5999 13.3452 15.5999 13.0004C15.5999 12.6556 15.7369 12.3249 15.9807 12.0812C16.2245 11.8374 16.5551 11.7004 16.8999 11.7004C17.2447 11.7004 17.5753 11.8374 17.8191 12.0812C18.0629 12.3249 18.1999 12.6556 18.1999 13.0004C18.1999 13.3452 18.0629 13.6758 17.8191 13.9196C17.5753 14.1634 17.2447 14.3004 16.8999 14.3004ZM15.5999 16.9004C15.5999 17.2452 15.7369 17.5758 15.9807 17.8196C16.2245 18.0634 16.5551 18.2004 16.8999 18.2004C17.2447 18.2004 17.5753 18.0634 17.8191 17.8196C18.0629 17.5758 18.1999 17.2452 18.1999 16.9004C18.1999 16.5556 18.0629 16.2249 17.8191 15.9812C17.5753 15.7374 17.2447 15.6004 16.8999 15.6004C16.5551 15.6004 16.2245 15.7374 15.9807 15.9812C15.7369 16.2249 15.5999 16.5556 15.5999 16.9004ZM12.9999 14.3004C12.6551 14.3004 12.3245 14.1634 12.0807 13.9196C11.8369 13.6758 11.6999 13.3452 11.6999 13.0004C11.6999 12.6556 11.8369 12.3249 12.0807 12.0812C12.3245 11.8374 12.6551 11.7004 12.9999 11.7004C13.3447 11.7004 13.6753 11.8374 13.9191 12.0812C14.1629 12.3249 14.2999 12.6556 14.2999 13.0004C14.2999 13.3452 14.1629 13.6758 13.9191 13.9196C13.6753 14.1634 13.3447 14.3004 12.9999 14.3004ZM11.6999 16.9004C11.6999 17.2452 11.8369 17.5758 12.0807 17.8196C12.3245 18.0634 12.6551 18.2004 12.9999 18.2004C13.3447 18.2004 13.6753 18.0634 13.9191 17.8196C14.1629 17.5758 14.2999 17.2452 14.2999 16.9004C14.2999 16.5556 14.1629 16.2249 13.9191 15.9812C13.6753 15.7374 13.3447 15.6004 12.9999 15.6004C12.6551 15.6004 12.3245 15.7374 12.0807 15.9812C11.8369 16.2249 11.6999 16.5556 11.6999 16.9004ZM9.0999 14.3004C8.75512 14.3004 8.42446 14.1634 8.18066 13.9196C7.93687 13.6758 7.7999 13.3452 7.7999 13.0004C7.7999 12.6556 7.93687 12.3249 8.18066 12.0812C8.42446 11.8374 8.75512 11.7004 9.0999 11.7004C9.44468 11.7004 9.77534 11.8374 10.0191 12.0812C10.2629 12.3249 10.3999 12.6556 10.3999 13.0004C10.3999 13.3452 10.2629 13.6758 10.0191 13.9196C9.77534 14.1634 9.44468 14.3004 9.0999 14.3004ZM3.8999 7.15039C3.8999 6.28844 4.24231 5.46179 4.85181 4.85229C5.4613 4.2428 6.28795 3.90039 7.1499 3.90039H18.8499C19.7119 3.90039 20.5385 4.2428 21.148 4.85229C21.7575 5.46179 22.0999 6.28844 22.0999 7.15039V18.8504C22.0999 19.7123 21.7575 20.539 21.148 21.1485C20.5385 21.758 19.7119 22.1004 18.8499 22.1004H7.1499C6.28795 22.1004 5.4613 21.758 4.85181 21.1485C4.24231 20.539 3.8999 19.7123 3.8999 18.8504V7.15039ZM20.7999 9.10039H5.1999V18.8504C5.1999 19.3676 5.40535 19.8636 5.77104 20.2292C6.13674 20.5949 6.63273 20.8004 7.1499 20.8004H18.8499C19.3671 20.8004 19.8631 20.5949 20.2288 20.2292C20.5945 19.8636 20.7999 19.3676 20.7999 18.8504V9.10039ZM18.8499 5.20039H7.1499C6.63273 5.20039 6.13674 5.40584 5.77104 5.77153C5.40535 6.13723 5.1999 6.63322 5.1999 7.15039V7.80039H20.7999V7.15039C20.7999 6.63322 20.5945 6.13723 20.2288 5.77153C19.8631 5.40584 19.3671 5.20039 18.8499 5.20039Z" fill="#333333"/>
</svg>
