<svg width="26" height="27" viewBox="0 0 26 27" fill="none" xmlns="http://www.w3.org/2000/svg">
<g clip-path="url(#clip0_2161_23336)">
<path d="M1.625 5.09479C3.06312 4.49354 5.12525 3.84516 7.1305 3.64366C9.29175 3.42591 11.1248 3.74604 12.1875 4.86566V20.7029C10.6681 19.8417 8.7425 19.723 6.96638 19.9018C5.04888 20.0968 3.11512 20.6509 1.625 21.2197V5.09479ZM13.8125 4.86566C14.8752 3.74604 16.7083 3.42591 18.8695 3.64366C20.8748 3.84516 22.9369 4.49354 24.375 5.09479V21.2197C22.8832 20.6509 20.9511 20.0952 19.0336 19.9034C17.2559 19.723 15.3319 19.84 13.8125 20.7029V4.86566ZM13 3.39666C11.3994 2.02029 9.07888 1.81554 6.96638 2.02679C4.50612 2.27541 2.02313 3.11879 0.476125 3.82241C0.33418 3.88697 0.21381 3.99101 0.129384 4.12212C0.0449584 4.25322 4.31786e-05 4.40585 0 4.56179L0 22.4368C3.76382e-05 22.5727 0.0341854 22.7065 0.0993153 22.8258C0.164445 22.9452 0.258475 23.0462 0.372793 23.1198C0.48711 23.1934 0.61806 23.2371 0.753648 23.2469C0.889236 23.2568 1.02513 23.2324 1.14887 23.1762C2.58213 22.5262 4.89125 21.7445 7.12888 21.5187C9.4185 21.2879 11.3376 21.66 12.3663 22.9438C12.4424 23.0387 12.5389 23.1153 12.6485 23.1679C12.7582 23.2205 12.8783 23.2478 13 23.2478C13.1217 23.2478 13.2418 23.2205 13.3515 23.1679C13.4611 23.1153 13.5576 23.0387 13.6338 22.9438C14.6624 21.66 16.5815 21.2879 18.8695 21.5187C21.1088 21.7445 23.4195 22.5262 24.8511 23.1762C24.9749 23.2324 25.1108 23.2568 25.2464 23.2469C25.3819 23.2371 25.5129 23.1934 25.6272 23.1198C25.7415 23.0462 25.8356 22.9452 25.9007 22.8258C25.9658 22.7065 26 22.5727 26 22.4368V4.56179C26 4.40585 25.955 4.25322 25.8706 4.12212C25.7862 3.99101 25.6658 3.88697 25.5239 3.82241C23.9769 3.11879 21.4939 2.27541 19.0336 2.02679C16.9211 1.81391 14.6006 2.02029 13 3.39666Z" fill="#2460B9"/>
</g>
<defs>
<clipPath id="clip0_2161_23336">
<rect width="26" height="26" fill="white" transform="translate(0 0.5)"/>
</clipPath>
</defs>
</svg>
