<svg width="26" height="27" viewBox="0 0 26 27" fill="none" xmlns="http://www.w3.org/2000/svg">
<path d="M5.68734 4.83398H20.3123C21.2117 4.83393 22.0769 5.178 22.7306 5.79563C23.3843 6.41326 23.7768 7.25761 23.8278 8.15548L23.8332 8.35482V18.6465C23.8332 19.5458 23.4892 20.411 22.8715 21.0647C22.2539 21.7184 21.4095 22.111 20.5117 22.1619L20.3123 22.1673H5.68734C4.78802 22.1674 3.92277 21.8233 3.26909 21.2057C2.6154 20.588 2.22284 19.7437 2.17192 18.8458L2.1665 18.6465V8.35482C2.16645 7.4555 2.51052 6.59025 3.12815 5.93657C3.74578 5.28288 4.59013 4.89032 5.488 4.8394L5.68734 4.83398ZM22.2082 10.6547L13.379 15.3022C13.2793 15.3549 13.1697 15.3862 13.0573 15.3943C12.9448 15.4023 12.8319 15.3868 12.7258 15.3488L12.6218 15.3033L3.7915 10.6558V18.6465C3.79152 19.1223 3.97044 19.5807 4.29274 19.9307C4.61504 20.2807 5.05716 20.4967 5.53134 20.5358L5.68734 20.5423H20.3123C20.7883 20.5423 21.2468 20.3632 21.5969 20.0407C21.9469 19.7182 22.1628 19.2758 22.2017 18.8014L22.2082 18.6465V10.6547ZM20.3123 6.45898H5.68734C5.21155 6.459 4.75316 6.63792 4.40316 6.96022C4.05317 7.28252 3.83715 7.72464 3.798 8.19882L3.7915 8.35482V8.81957L12.9998 13.6653L22.2082 8.81848V8.35482C22.2081 7.87886 22.0291 7.42032 21.7065 7.0703C21.384 6.72028 20.9416 6.50438 20.4673 6.46548L20.3123 6.45898Z" fill="#2460B9"/>
</svg>
