<svg width="26" height="27" viewBox="0 0 26 27" fill="none" xmlns="http://www.w3.org/2000/svg">
<path d="M21.1249 24.0625H20.9868C5.02118 23.1444 2.7543 9.67313 2.43743 5.56188C2.41189 5.24222 2.44969 4.92067 2.54864 4.61565C2.64759 4.31062 2.80575 4.02812 3.01407 3.78433C3.22239 3.54054 3.47676 3.34025 3.76262 3.19493C4.04848 3.04962 4.3602 2.96214 4.67993 2.9375H9.1568C9.48225 2.93719 9.8003 3.0346 10.0698 3.21713C10.3392 3.39966 10.5476 3.65889 10.6681 3.96125L11.9031 7C12.022 7.29538 12.0515 7.61919 11.9879 7.9312C11.9244 8.24321 11.7705 8.52967 11.5456 8.755L9.81493 10.5019C10.0853 12.0381 10.8209 13.4542 11.9225 14.5587C13.024 15.6631 14.4382 16.4025 15.9737 16.6769L17.7368 14.93C17.9655 14.7075 18.2547 14.5573 18.5682 14.498C18.8818 14.4388 19.2058 14.4732 19.4999 14.5969L22.5631 15.8238C22.8608 15.948 23.1149 16.158 23.2929 16.4272C23.4709 16.6963 23.5647 17.0123 23.5624 17.335V21.625C23.5624 22.2715 23.3056 22.8915 22.8485 23.3486C22.3914 23.8057 21.7714 24.0625 21.1249 24.0625ZM4.87493 4.5625C4.65944 4.5625 4.45278 4.6481 4.3004 4.80048C4.14803 4.95285 4.06243 5.15951 4.06243 5.375V5.44C4.43618 10.25 6.83305 21.625 21.0762 22.4375C21.1829 22.4441 21.2899 22.4296 21.391 22.3947C21.4921 22.3599 21.5854 22.3054 21.6654 22.2344C21.7454 22.1635 21.8106 22.0774 21.8573 21.9812C21.904 21.885 21.9312 21.7805 21.9374 21.6737V17.335L18.8743 16.1081L16.5424 18.4237L16.1524 18.375C9.08368 17.4894 8.12493 10.4206 8.12493 10.3475L8.07618 9.9575L10.3837 7.62563L9.16493 4.5625H4.87493Z" fill="#2460B9"/>
</svg>
