<svg width="24" height="25" viewBox="0 0 24 25" fill="none" xmlns="http://www.w3.org/2000/svg">
<path d="M21.0536 20.548C21.3319 20.8332 21.3319 21.2957 21.0536 21.5809C20.7754 21.8661 20.3242 21.8661 20.046 21.5809L16.626 18.0754C16.3477 17.7902 16.3477 17.3277 16.626 17.0425C16.9042 16.7573 17.3554 16.7573 17.6336 17.0425L21.0536 20.548ZM10.2898 18.2893C6.11867 18.2893 2.7373 14.8234 2.7373 10.548C2.7373 6.27254 6.11867 2.80664 10.2898 2.80664C14.4609 2.80664 17.8423 6.27254 17.8423 10.548C17.8423 14.8234 14.4609 18.2893 10.2898 18.2893ZM10.2898 16.8286C13.6739 16.8286 16.4173 14.0167 16.4173 10.548C16.4173 7.07922 13.6739 4.26727 10.2898 4.26727C6.90568 4.26727 4.1623 7.07922 4.1623 10.548C4.1623 14.0167 6.90568 16.8286 10.2898 16.8286ZM6.7748 9.9637C6.7748 10.2326 6.56214 10.4506 6.2998 10.4506C6.03747 10.4506 5.8248 10.2326 5.8248 9.9637C5.8248 7.75877 7.56865 5.97133 9.7198 5.97133C9.98214 5.97133 10.1948 6.18931 10.1948 6.4582C10.1948 6.7271 9.98214 6.94508 9.7198 6.94508C8.09333 6.94508 6.7748 8.29656 6.7748 9.9637Z" fill="#828282"/>
</svg>
