<svg width="35" height="35" viewBox="0 0 35 35" fill="none" xmlns="http://www.w3.org/2000/svg">
<path d="M15.3125 19.4248C15.6751 19.4248 16.0229 19.5688 16.2793 19.8252C16.5357 20.0816 16.6797 20.4294 16.6797 20.792C16.6797 21.1546 16.5357 21.5023 16.2793 21.7587C16.0229 22.0151 15.6751 22.1592 15.3125 22.1592C14.9499 22.1592 14.6022 22.0151 14.3458 21.7587C14.0894 21.5023 13.9453 21.1546 13.9453 20.792C13.9453 20.4294 14.0894 20.0816 14.3458 19.8252C14.6022 19.5688 14.9499 19.4248 15.3125 19.4248ZM15.3125 8.75635C17.5678 8.75635 19.3659 10.607 19.3659 13.022C19.3659 14.3038 18.8978 15.0082 17.7756 15.9051L17.1697 16.3754C16.6316 16.7998 16.45 17.0317 16.4128 17.3554L16.3888 17.6967C16.3401 17.9656 16.1924 18.2066 15.975 18.3721C15.7575 18.5377 15.4859 18.6158 15.2137 18.5911C14.9415 18.5664 14.6884 18.4407 14.5042 18.2387C14.3201 18.0367 14.2183 17.7731 14.2188 17.4998C14.2188 16.2529 14.6781 15.566 15.785 14.6823L16.3931 14.212C17.0231 13.7088 17.1806 13.4638 17.1806 13.022C17.1806 11.8013 16.345 10.9438 15.3125 10.9438C14.2319 10.9438 13.4334 11.7445 13.4466 13.011C13.4495 13.3011 13.337 13.5805 13.134 13.7876C13.0334 13.8902 12.9136 13.972 12.7815 14.0283C12.6493 14.0846 12.5074 14.1143 12.3638 14.1157C12.0737 14.1186 11.7943 14.0062 11.5872 13.8031C11.38 13.6 11.262 13.323 11.2591 13.0329C11.235 10.5435 13.02 8.75635 15.3125 8.75635ZM4.37501 15.3123C4.3759 12.9455 5.1445 10.6428 6.56542 8.75002C7.98634 6.85721 9.98291 5.47639 12.2554 4.81484C14.5278 4.1533 16.9536 4.24674 19.1684 5.08113C21.3833 5.91553 23.2677 7.44585 24.5388 9.44236C25.8099 11.4389 26.3991 13.7938 26.2179 16.1537C26.0367 18.5135 25.095 20.7509 23.534 22.53C21.973 24.3091 19.8771 25.5338 17.5608 26.0203C15.2446 26.5069 12.833 26.2289 10.6881 25.2282L5.68314 26.2279C5.5067 26.263 5.32432 26.2541 5.15217 26.2019C4.98001 26.1497 4.82339 26.0558 4.69619 25.9286C4.56898 25.8014 4.47511 25.6448 4.42291 25.4726C4.3707 25.3005 4.36176 25.1181 4.39689 24.9417L5.39657 19.9345C4.72157 18.4872 4.37283 16.9092 4.37501 15.3123ZM15.3125 6.56228C13.8148 6.56191 12.342 6.94598 11.0352 7.67774C9.72842 8.40951 8.63132 9.46446 7.84896 10.7416C7.0666 12.0188 6.62517 13.4754 6.56692 14.972C6.50866 16.4686 6.83554 17.9551 7.51626 19.2892C7.6286 19.509 7.66329 19.7603 7.6147 20.0023L6.8622 23.7626L10.6225 23.0101C10.8645 22.9615 11.1158 22.9962 11.3356 23.1085C12.5141 23.709 13.8133 24.0345 15.1357 24.0606C16.4581 24.0867 17.7692 23.8126 18.9704 23.259C20.1716 22.7055 21.2317 21.8868 22.0709 20.8645C22.9102 19.8423 23.5068 18.6431 23.8159 17.3571C24.125 16.0711 24.1385 14.7318 23.8555 13.4398C23.5724 12.1478 23.0002 10.9368 22.1817 9.8978C21.3633 8.85881 20.32 8.01888 19.1302 7.44115C17.9404 6.86343 16.6351 6.56294 15.3125 6.56228ZM12.8188 28.201C14.7624 29.7731 17.1876 30.6289 19.6875 30.6248C21.3369 30.6248 22.9031 30.2595 24.3097 29.6032L29.3169 30.6029C29.4933 30.638 29.6757 30.6291 29.8479 30.5769C30.02 30.5247 30.1766 30.4308 30.3038 30.3036C30.431 30.1764 30.5249 30.0198 30.5771 29.8476C30.6293 29.6755 30.6383 29.4931 30.6031 29.3167L29.6034 24.3117C30.2597 22.9051 30.625 21.3367 30.625 19.6873C30.6286 17.1882 29.7729 14.7638 28.2013 12.8207C28.513 14.4402 28.5182 16.1037 28.2166 17.7251C28.6752 19.7295 28.4159 21.8313 27.4838 23.6642C27.3714 23.884 27.3367 24.1353 27.3853 24.3773L28.1378 28.1376L24.3753 27.3851C24.134 27.337 23.8835 27.3717 23.6644 27.4835C21.8312 28.4171 19.7282 28.6765 17.7231 28.2163C16.1018 28.5178 14.4382 28.5126 12.8188 28.201Z" fill="#2460B9"/>
</svg>
